<svg width="199" height="39" viewBox="0 0 199 39" fill="none" xmlns="http://www.w3.org/2000/svg">
<path fill-rule="evenodd" clip-rule="evenodd" d="M13.6421 0C15.7684 0 17.8358 0.43773 19.8364 1.30937C21.8369 2.18498 23.5034 3.37225 24.8358 4.87892C26.0227 6.23571 26.8598 7.69902 27.3511 9.26879C27.752 10.5546 27.984 12.1401 28.0587 14.0175H16.8061C16.7746 11.9035 15.8982 10.8425 14.1689 10.8425V10.8463C12.4317 10.8463 11.5592 11.6471 11.5592 13.2445C11.5592 14.9917 12.6949 15.8634 14.9745 15.8634H29.9177V15.3036C29.9177 14.8619 29.9255 14.4358 29.9451 14.0217C30.012 12.1404 30.2518 10.5548 30.6527 9.269C31.144 7.69924 31.9811 6.23591 33.168 4.87913C34.5004 3.37246 36.1669 2.18519 38.1675 1.30959C40.168 0.437932 42.2315 0.000213183 44.3617 0.000213183C48.2134 0.000226694 51.448 1.30178 54.0696 3.90488C56.6911 6.50407 58 9.73042 58 13.576C58 17.3111 56.8247 20.3402 54.4744 22.6633C52.3245 24.801 49.0859 25.87 44.7508 25.87L43.0293 25.8423L41.1939 25.8421V39H29.9177V25.8421H14.9745L13.253 25.8698C8.91789 25.8698 5.67935 24.8008 3.52947 22.6631C1.1752 20.34 0 17.4213 0 13.5757C1.34526e-05 9.73022 1.30873 6.5078 3.93024 3.90467C6.55174 1.30155 9.7904 2.277e-05 13.6421 0ZM43.8351 10.8427C42.094 10.8427 41.2253 11.9076 41.1977 14.0217C41.1938 14.0572 41.1939 14.0967 41.1939 14.1321V15.8634H43.0468C45.3108 15.8589 46.4448 14.9836 46.4449 13.2408C46.4449 11.6435 45.5762 10.8428 43.8351 10.8427Z" fill="#004E98"/>
<path d="M28.0823 38.996H16.8061V27.684H28.0823V38.996Z" fill="#004E98"/>
<path d="M142.43 30.7627C142.43 31.7909 142.867 32.305 143.742 32.305C144.605 32.305 145.037 31.7909 145.037 30.7627V20.5478H151.951V30.6357C151.951 32.9823 151.156 34.966 149.566 36.5869C147.976 38.1956 146.029 39 143.724 39C141.099 39 138.985 38.0626 137.383 36.1877C136.138 34.7241 135.516 32.692 135.516 30.0914V20.5478H142.43V30.7627Z" fill="#004E98"/>
<path d="M178.535 27.6964C177.561 27.6964 176.89 27.8779 176.52 28.2407C176.162 28.5915 175.934 29.2931 175.836 30.3454C175.515 33.8411 174.135 36.3087 171.695 37.7481C170.401 38.498 168.564 38.873 166.186 38.873H165.224V31.6881H165.539C166.648 31.6881 167.437 31.4643 167.905 31.0167C168.386 30.5571 168.663 29.7588 168.737 28.6218C168.835 26.7711 169.008 25.4708 169.254 24.7209C169.513 23.9709 170.031 23.227 170.807 22.4892C172.163 21.1949 174.043 20.5478 176.446 20.5478H178.535V27.6964Z" fill="#004E98"/>
<path d="M67.6132 19.9309C70.5958 19.9309 72.9436 20.7897 74.6567 22.5073C76.3822 24.2128 77.2449 26.5473 77.2449 29.5108V38.3831H70.3308V30.0007C70.3308 29.0451 70.0905 28.2831 69.6098 27.7146C69.1415 27.1461 68.5068 26.8618 67.7057 26.8618C66.9785 26.8618 66.3499 27.1219 65.82 27.642C65.29 28.1621 65.025 28.779 65.025 29.4927C65.025 30.2426 65.2654 30.8595 65.746 31.3433C66.2267 31.8272 66.8368 32.0691 67.5762 32.0691C68.1802 32.0691 68.7409 31.9118 69.2586 31.5974V38.619C68.6916 38.7157 68.174 38.7641 67.7057 38.7641C64.9326 38.7641 62.6217 37.869 60.773 36.0788C58.9244 34.2887 58 32.0449 58 29.3475C58 26.7227 58.9305 24.4971 60.7915 22.6706C62.6649 20.8442 64.9388 19.9309 67.6132 19.9309Z" fill="#004E98"/>
<path d="M189.535 19.8946C192.209 19.8946 194.452 20.7897 196.264 22.5799C198.088 24.358 199 26.5534 199 29.1661C199 29.4322 198.975 29.8555 198.926 30.4361H188.444C188.284 29.916 188.204 29.4382 188.204 29.0028C188.204 28.398 188.315 27.8053 188.536 27.2247H192.049C191.802 25.8821 191.032 25.2107 189.738 25.2107C188.875 25.2107 188.173 25.5736 187.631 26.2994C187.088 27.013 186.817 27.9323 186.817 29.0572C186.817 30.2305 187.076 31.18 187.594 31.9058C188.124 32.6315 188.814 32.9944 189.664 32.9944C190.354 32.9944 191.02 32.6557 191.661 31.9784L195.598 36.6232C193.762 38.0384 191.722 38.746 189.479 38.746C186.743 38.746 184.445 37.8449 182.584 36.0426C180.723 34.2403 179.792 32.0086 179.792 29.3475C179.792 26.6985 180.729 24.4608 182.602 22.6343C184.488 20.8079 186.799 19.8946 189.535 19.8946Z" fill="#004E98"/>
<path d="M87.4312 20.5478H90.537V27.7146H87.4312C87.4312 29.154 87.6592 30.1458 88.1152 30.6902C88.5836 31.2345 89.434 31.5066 90.6664 31.5066V38.6371C90.309 38.6492 90.0441 38.6553 89.8715 38.6553C88.3063 38.6553 86.8273 38.2984 85.4346 37.5848C84.0543 36.8711 82.9451 35.9035 82.107 34.6818C81.0471 33.1214 80.5171 31.053 80.5171 28.4766V13.6169H87.4312V20.5478Z" fill="#004E98"/>
<path d="M100.871 21.1828C102.042 20.3482 103.213 19.9309 104.384 19.9309C106.159 19.9309 107.564 20.5599 108.599 21.8179C109.646 23.0758 110.17 24.7753 110.17 26.9163V38.3831H103.256V28.8214C103.256 28.0472 103.17 27.5271 102.997 27.261C102.837 26.9949 102.517 26.8618 102.036 26.8618C101.259 26.8618 100.871 27.4243 100.871 28.5492V38.3831H93.9571V13.6169H100.871V21.1828Z" fill="#004E98"/>
<path d="M123.832 13C126.396 13 128.546 13.8467 130.284 15.5401C132.034 17.2335 132.909 19.3322 132.909 21.836C132.909 24.2673 132.127 26.2389 130.561 27.7509C129.132 29.1419 126.975 29.8374 124.091 29.8374L122.945 29.8193V23.3238C124.461 23.3238 125.219 22.7553 125.219 21.6183C125.219 20.578 124.639 20.0579 123.481 20.0579C122.31 20.0579 121.725 20.7716 121.725 22.1989V38.3831H114.219V22.9609C114.219 21.3643 114.379 20.0579 114.699 19.0419C115.032 18.0137 115.593 17.0581 116.382 16.1752C117.269 15.1954 118.378 14.4213 119.709 13.8528C121.041 13.2842 122.415 13 123.832 13Z" fill="#004E98"/>
<path d="M162.913 38.3831H155.999V13.6169H162.913V38.3831Z" fill="#004E98"/>
</svg>
